<svg xmlns="http://www.w3.org/2000/svg" viewBox="0 0 100 100">
  <!-- 바나나 본체 -->
  <path d="M 25 30 Q 20 35, 18 45 Q 16 58, 22 68 Q 28 76, 38 80 Q 48 82, 58 78 Q 65 74, 68 66 Q 70 58, 66 48 Q 62 40, 54 36 Q 45 32, 35 32 Q 28 32, 25 30 Z"
        fill="#FFD93D"
        stroke="#E6A500"
        stroke-width="2.5"
        stroke-linejoin="round"/>

  <!-- 바나나 안쪽 곡선 -->
  <path d="M 30 35 Q 26 42, 25 52 Q 24 62, 30 70 Q 36 76, 46 78"
        fill="none"
        stroke="#E6A500"
        stroke-width="2"
        stroke-linecap="round"/>

  <!-- 줄기 -->
  <path d="M 24 30 Q 20 26, 18 22"
        fill="none"
        stroke="#8B6914"
        stroke-width="4"
        stroke-linecap="round"/>

  <!-- 하이라이트 -->
  <ellipse cx="48" cy="50" rx="12" ry="18" fill="#FFF9C4" opacity="0.4"/>
</svg>
